<?xml version="1.0" encoding="utf-8"?>
<!-- Generator: Adobe Illustrator 19.0.0, SVG Export Plug-In . SVG Version: 6.00 Build 0)  -->
<svg version="1.1" id="Layer_1" xmlns="http://www.w3.org/2000/svg" xmlns:xlink="http://www.w3.org/1999/xlink" x="0px" y="0px"
	 viewBox="0 0 220 100" enable-background="new 0 0 220 100" xml:space="preserve">
<g id="XMLID_41_">
	<path id="XMLID_49_" fill="#FFFFFF" d="M17.7,61.6c0,4.1,2.9,5.9,6.4,5.9c3.5,0,6.4-1.7,6.4-5.8v-0.1c0-10.1-20.1-5.1-20.1-22.2
		v-0.1c0-8,5.6-12.7,13.6-12.7c8,0,13.6,4.8,13.6,12.8v0.1c0,1.7-0.9,2.5-2.5,2.5h-2.9c-1.5,0-2.3-0.8-2.3-2.3v-0.2
		c0-3.7-2.5-5.7-5.9-5.7c-3.5,0-5.9,2-5.9,5.7v0.1c0,10.1,20.1,5.1,20.1,22.3V62c0,8.1-5.9,12.7-14.3,12.7c-8,0-13.9-4.8-13.9-12.8
		v-0.3c0-1.7,0.9-2.5,2.5-2.5h2.9c1.5,0,2.3,0.8,2.3,2.3V61.6z"/>
	<path id="XMLID_47_" fill="#FFFFFF" d="M46.4,27.3H49c1.7,0,2.5,0.9,2.5,2.5v18.1l13-18.8c0.8-1.1,1.6-1.8,3.3-1.8h3.7
		c1.7,0,2.1,1.9,1.3,3.1L60.3,47.1l12.8,23.9c0.7,1.3,0.1,2.9-1.6,2.9h-3.3c-1.7,0-2.6-0.5-3.3-2.1l-9.3-18.4l-3.9,5.3v12.7
		c0,1.7-0.9,2.5-2.5,2.5h-2.6c-1.7,0-2.5-0.9-2.5-2.5V29.9C43.9,28.2,44.8,27.3,46.4,27.3z"/>
	<path id="XMLID_45_" fill="#FFFFFF" d="M82,27.3h2.6c1.7,0,2.5,0.9,2.5,2.5v41.6c0,1.7-0.9,2.5-2.5,2.5H82c-1.7,0-2.5-0.9-2.5-2.5
		V29.9C79.4,28.2,80.3,27.3,82,27.3z"/>
	<path id="XMLID_42_" fill="#FFFFFF" d="M94.8,29.9c0-1.7,0.9-2.5,2.5-2.5h12.3c8.1,0,13,4.5,13,13v3c0,8.5-4.9,13-13,13h-7.2v15.1
		c0,1.7-0.9,2.5-2.5,2.5h-2.6c-1.7,0-2.5-0.9-2.5-2.5V29.9z M102.5,34.6v14.5h6.2c4.1,0,6.3-1.5,6.3-6.3v-1.8c0-4.8-2.2-6.3-6.3-6.3
		H102.5z"/>
</g>
<g id="XMLID_18_">
	<g id="XMLID_33_">
		<path id="XMLID_39_" fill="#FFFFFF" d="M133.6,48.7c-2.9,0-4.5-1.2-4.5-4.5V29.8c0-0.7,0.4-1.1,1.1-1.1h1.1c0.7,0,1.1,0.4,1.1,1.1
			v2.8h2.6c0.7,0,1.1,0.4,1.1,1.1v0.9c0,0.7-0.4,1.1-1.1,1.1h-2.6V44c0,1.2,0.4,1.7,1.7,1.7c0.3,0,0.6,0,0.9-0.1
			c0.7-0.1,1.1,0.3,1.1,1.1v0.9c0,0.7-0.4,1-0.9,1.1C134.6,48.7,134.1,48.7,133.6,48.7z"/>
		<path id="XMLID_37_" fill="#FFFFFF" d="M141.2,47.5c0,0.7-0.4,1.1-1.1,1.1H139c-0.7,0-1.1-0.4-1.1-1.1V28.1c0-0.7,0.4-1.1,1.1-1.1
			h1.1c0.7,0,1.1,0.4,1.1,1.1v5.4c0.7-0.9,1.8-1.3,3-1.3c2.5,0,4.3,1.6,4.3,5v10.2c0,0.7-0.4,1.1-1.1,1.1h-1.1
			c-0.7,0-1.1-0.4-1.1-1.1v-9.6c0-1.9-0.9-2.5-2-2.5c-1.1,0-2,0.6-2,2.5V47.5z"/>
		<path id="XMLID_34_" fill="#FFFFFF" d="M159,43.2h1.2c0.7,0,1.1,0.4,1.1,1.1c0,2.7-2.1,4.6-5.2,4.6c-3,0-5.3-1.8-5.3-5.4v-5.9
			c0-3.6,2.3-5.4,5.3-5.4s5.3,1.8,5.3,5.4v2.6c0,0.7-0.4,1.1-1.1,1.1h-6.2v2c0,1.9,0.9,2.5,2,2.5c1.2,0,1.9-0.7,1.9-1.7
			C158.1,43.5,158.4,43.2,159,43.2z M154.1,38.8h4.1v-1c0-1.9-0.9-2.5-2-2.5c-1.1,0-2,0.6-2,2.5V38.8z"/>
	</g>
	<g id="XMLID_19_">
		<path id="XMLID_30_" fill="#FFFFFF" d="M129.1,54.2c0-0.8,0.4-1.2,1.2-1.2h5.2c3.8,0,6.6,1.9,6.6,6.3v8.6c0,4.4-2.8,6.3-6.6,6.3
			h-5.2c-0.8,0-1.2-0.4-1.2-1.2V54.2z M135.4,56.3h-2.8v14.6h2.8c1.7,0,3.2-0.5,3.2-3.4v-7.9C138.5,56.9,137.1,56.3,135.4,56.3z"/>
		<path id="XMLID_28_" fill="#FFFFFF" d="M146.2,53h1.2c0.8,0,1.2,0.4,1.2,1.2v18.9c0,0.8-0.4,1.2-1.2,1.2h-1.2
			c-0.8,0-1.2-0.4-1.2-1.2V54.2C145,53.4,145.4,53,146.2,53z"/>
		<path id="XMLID_26_" fill="#FFFFFF" d="M154.6,68.6c0,1.9,1.3,2.7,2.9,2.7c1.6,0,2.9-0.8,2.9-2.6v0c0-4.6-9.1-2.3-9.1-10.1v0
			c0-3.6,2.5-5.8,6.2-5.8c3.6,0,6.2,2.2,6.2,5.8v0.1c0,0.8-0.4,1.2-1.2,1.2h-1.3c-0.7,0-1-0.4-1-1v-0.1c0-1.7-1.1-2.6-2.7-2.6
			c-1.6,0-2.7,0.9-2.7,2.6v0c0,4.6,9.1,2.3,9.1,10.1v0c0,3.7-2.7,5.8-6.5,5.8c-3.6,0-6.3-2.2-6.3-5.8v-0.1c0-0.8,0.4-1.2,1.2-1.2
			h1.3C154.3,67.5,154.6,67.8,154.6,68.6L154.6,68.6z"/>
		<path id="XMLID_24_" fill="#FFFFFF" d="M168.3,53h1.2c0.8,0,1.2,0.4,1.2,1.2v7.6h6.2v-7.6c0-0.8,0.4-1.2,1.2-1.2h1.2
			c0.8,0,1.2,0.4,1.2,1.2v18.9c0,0.8-0.4,1.2-1.2,1.2H178c-0.8,0-1.2-0.4-1.2-1.2v-8h-6.2v8c0,0.8-0.4,1.2-1.2,1.2h-1.2
			c-0.8,0-1.2-0.4-1.2-1.2V54.2C167.2,53.4,167.6,53,168.3,53z"/>
		<path id="XMLID_22_" fill="#FFFFFF" d="M183.8,54.2c0-0.8,0.4-1.2,1.2-1.2h9.6c0.8,0,1.2,0.4,1.2,1.2v1c0,0.8-0.4,1.2-1.2,1.2
			h-7.3v5.5h5.6c0.8,0,1.2,0.4,1.2,1.2v1c0,0.8-0.4,1.2-1.2,1.2h-5.6v5.8h7.3c0.8,0,1.2,0.4,1.2,1.2v1c0,0.8-0.4,1.2-1.2,1.2H185
			c-0.8,0-1.2-0.4-1.2-1.2V54.2z"/>
		<path id="XMLID_20_" fill="#FFFFFF" d="M200.7,68.6c0,1.9,1.3,2.7,2.9,2.7c1.6,0,2.9-0.8,2.9-2.6v0c0-4.6-9.1-2.3-9.1-10.1v0
			c0-3.6,2.5-5.8,6.2-5.8c3.6,0,6.2,2.2,6.2,5.8v0.1c0,0.8-0.4,1.2-1.2,1.2h-1.3c-0.7,0-1-0.4-1-1v-0.1c0-1.7-1.1-2.6-2.7-2.6
			c-1.6,0-2.7,0.9-2.7,2.6v0c0,4.6,9.1,2.3,9.1,10.1v0c0,3.7-2.7,5.8-6.5,5.8c-3.6,0-6.3-2.2-6.3-5.8v-0.1c0-0.8,0.4-1.2,1.2-1.2
			h1.3C200.4,67.5,200.7,67.8,200.7,68.6L200.7,68.6z"/>
	</g>
</g>
</svg>
